<?xml version="1.0" encoding="UTF-8"?>
<svg width="16" height="16" viewBox="0 0 16 16" fill="none" xmlns="http://www.w3.org/2000/svg">
    <path d="M8 2.5C8.55228 2.5 9 2.05228 9 1.5C9 0.947715 8.55228 0.5 8 0.5C7.44772 0.5 7 0.947715 7 1.5C7 2.05228 7.44772 2.5 8 2.5Z" fill="#71717A"/>
    <path d="M8 9C8.55228 9 9 8.55228 9 8C9 7.44772 8.55228 7 8 7C7.44772 7 7 7.44772 7 8C7 8.55228 7.44772 9 8 9Z" fill="#71717A"/>
    <path d="M8 15.5C8.55228 15.5 9 15.0523 9 14.5C9 13.9477 8.55228 13.5 8 13.5C7.44772 13.5 7 13.9477 7 14.5C7 15.0523 7.44772 15.5 8 15.5Z" fill="#71717A"/>
</svg>