<svg width="11" height="11" viewBox="0 0 11 11" fill="none" xmlns="http://www.w3.org/2000/svg">
<path d="M5.50001 9.29687L2.90626 10.8594C2.79168 10.9323 2.67188 10.9635 2.54688 10.9531C2.42188 10.9427 2.31251 10.901 2.21876 10.8281C2.12501 10.7552 2.05209 10.6641 2.00001 10.5547C1.94793 10.4453 1.93751 10.3229 1.96876 10.1875L2.65626 7.23438L0.359384 5.25C0.255218 5.15625 0.190114 5.04948 0.164072 4.92969C0.13803 4.8099 0.145843 4.69271 0.187509 4.57812C0.229176 4.46354 0.291676 4.36979 0.375009 4.29688C0.458343 4.22396 0.572926 4.17708 0.718759 4.15625L3.75001 3.89062L4.92188 1.10937C4.97397 0.984375 5.0547 0.890625 5.16407 0.828125C5.27345 0.765625 5.38543 0.734375 5.50001 0.734375C5.61459 0.734375 5.72657 0.765625 5.83595 0.828125C5.94532 0.890625 6.02605 0.984375 6.07813 1.10937L7.25001 3.89062L10.2813 4.15625C10.4271 4.17708 10.5417 4.22396 10.625 4.29688C10.7083 4.36979 10.7708 4.46354 10.8125 4.57812C10.8542 4.69271 10.862 4.8099 10.8359 4.92969C10.8099 5.04948 10.7448 5.15625 10.6406 5.25L8.34376 7.23438L9.03126 10.1875C9.06251 10.3229 9.05209 10.4453 9.00001 10.5547C8.94793 10.6641 8.87501 10.7552 8.78126 10.8281C8.68751 10.901 8.57813 10.9427 8.45313 10.9531C8.32813 10.9635 8.20834 10.9323 8.09376 10.8594L5.50001 9.29687Z" fill="#A9E851"/>
</svg>
